<?xml version="1.0" encoding="UTF-8" standalone="no"?>
<!-- Uploaded to: SVG Repo, www.svgrepo.com, Generator: SVG Repo Mixer Tools -->

<svg
   fill="#000000"
   width="800"
   height="800"
   viewBox="0 0 1000 1000"
   version="1.1"
   id="svg1046"
   sodipodi:docname="home-menu-community-svgrepo-com.svg"
   xmlns:inkscape="http://www.inkscape.org/namespaces/inkscape"
   xmlns:sodipodi="http://sodipodi.sourceforge.net/DTD/sodipodi-0.dtd"
   xmlns="http://www.w3.org/2000/svg"
   xmlns:svg="http://www.w3.org/2000/svg">
  <defs
     id="defs1050" />
  <sodipodi:namedview
     id="namedview1048"
     pagecolor="#ffffff"
     bordercolor="#000000"
     borderopacity="0.25"
     inkscape:showpageshadow="2"
     inkscape:pageopacity="0.0"
     inkscape:pagecheckerboard="0"
     inkscape:deskcolor="#d1d1d1"
     showgrid="false" />
  <path
     d="m 323,816 q 11,-18 25,-40 -22,-35 -55,-85 -3,-4 -7,-7 -1,-1 -0.5,-2 0.5,-1 1.5,-2 32,-15 51,-46 -15,-32 -15,-68 0,-29 10,-56 -22,-30 -57.5,-41.5 -35.5,-11.5 -71,0 -35.5,11.5 -57,41.5 -21.5,30 -21.5,67 0,33 19,61 19,28 49,42 1,1 1,2 0,1 -1,2 -4,3 -6,7 -44,65 -66,102 -9,15 -9,25 0,21 37.5,36 37.5,15 89.5,15 34,0 68,-8 1,-20 15,-45 z m 323,18 q -28,-48 -81,-126 -3,-5 -8,-9 -1,-1 -1,-2.5 0,-1.5 2,-2.5 37,-18 60.5,-52.5 Q 642,607 642,566 642,528 622.5,495.5 603,463 570.5,444 538,425 499.5,425 461,425 428.5,444 396,463 377,495.5 358,528 358,566 q 0,41 23.5,75.5 23.5,34.5 60.5,52.5 2,0 2,1.5 0,1.5 -1,2.5 -5,5 -9,10 -53,79 -80,126 -11,19 -11,31 0,17 21,31.5 21,14.5 57,23 36,8.5 79,8.5 43,0 79,-8.5 36,-8.5 57,-23 21,-14.5 21,-31.5 0,-12 -11,-31 z M 852,162 h -36 v 70 q 0,29 -20.5,49.5 Q 775,302 746,302 H 348 v 8 q 1,12 10,20 9,8 21,8 h 328 l 69,68 q 4,5 9.5,2.5 5.5,-2.5 5.5,-8.5 l -4,-62 h 65 q 13,0 22.5,-9 9.5,-9 9.5,-23 V 194 q 0,-13 -9.5,-22.5 Q 865,162 852,162 Z M 746,99 H 147 q -13,0 -22,9 -9,9 -9,22 v 102 q 0,12 9,21.5 9,9.5 22,9.5 h 66 l -13,83 q -1,6 4.5,8.5 5.5,2.5 9.5,-1.5 l 92,-90 h 440 q 13,0 22,-9 9,-9 9,-22 V 130 q 0,-13 -9,-22 -9,-9 -22,-9 z m 132,694 q -23,-39 -65,-102 -3,-4 -7,-7 -1,-1 -1,-2 0,-1 1,-2 30,-14 49,-42 19,-28 19,-61 0,-37 -22,-67 -22,-30 -57,-41.5 -35,-11.5 -70.5,0 Q 689,480 668,510 q 9,27 9,56 0,36 -15,68 19,30 51,46 1,1 1.5,2 0.5,1 -0.5,2 -4,3 -7,7 -34,51 -55,85 14,22 25,40 14,25 15,45 34,8 68,8 52,0 89.5,-15 37.5,-15 37.5,-36 0,-10 -9,-25 z"
     id="path1044"
     style="fill:#ff0000" />
</svg>
