<?xml version="1.0" encoding="UTF-8" standalone="no"?>
<svg
   width="63.999996"
   height="64"
   viewBox="0 0 16.933332 16.933334"
   version="1.1"
   id="svg8"
   inkscape:version="0.92.3 (2405546, 2018-03-11)"
   sodipodi:docname="18591627181640698744.svg"
   inkscape:export-filename="communication.svg"
   inkscape:export-xdpi="96"
   inkscape:export-ydpi="96"
   xmlns:inkscape="http://www.inkscape.org/namespaces/inkscape"
   xmlns:sodipodi="http://sodipodi.sourceforge.net/DTD/sodipodi-0.dtd"
   xmlns="http://www.w3.org/2000/svg"
   xmlns:svg="http://www.w3.org/2000/svg"
   xmlns:rdf="http://www.w3.org/1999/02/22-rdf-syntax-ns#"
   xmlns:cc="http://creativecommons.org/ns#"
   xmlns:dc="http://purl.org/dc/elements/1.1/">
  <defs
     id="defs2" />
  <sodipodi:namedview
     id="base"
     pagecolor="#ffffff"
     bordercolor="#959595"
     borderopacity="1"
     inkscape:pageopacity="0"
     inkscape:pageshadow="2"
     inkscape:zoom="3.2055504"
     inkscape:cx="29.070952"
     inkscape:cy="34.715333"
     inkscape:document-units="px"
     inkscape:current-layer="layer1"
     inkscape:document-rotation="0"
     showgrid="false"
     units="px"
     inkscape:window-width="1920"
     inkscape:window-height="1040"
     inkscape:window-x="0"
     inkscape:window-y="0"
     inkscape:window-maximized="1"
     inkscape:pagecheckerboard="0"
     inkscape:snap-bbox="true"
     inkscape:bbox-nodes="true"
     inkscape:snap-page="true"
     inkscape:snap-global="false"
     inkscape:showpageshadow="2"
     inkscape:deskcolor="#d1d1d1">
    <inkscape:grid
       type="xygrid"
       id="grid858" />
  </sodipodi:namedview>
  <metadata
     id="metadata5">
    <rdf:RDF>
      <cc:Work
         rdf:about="">
        <dc:format>image/svg+xml</dc:format>
        <dc:type
           rdf:resource="http://purl.org/dc/dcmitype/StillImage" />
      </cc:Work>
    </rdf:RDF>
  </metadata>
  <g
     inkscape:label="13-Online consulting"
     inkscape:groupmode="layer"
     id="layer1">
    <path
       style="opacity:1;fill:#ff0000;fill-opacity:1;stroke:none;stroke-width:0.529167;stroke-linecap:round;stroke-linejoin:round;stroke-miterlimit:4;stroke-dasharray:none;stroke-dashoffset:0;stroke-opacity:1"
       d="M 8.203117,0 C 7.6214001,0 7.1463341,0.47713454 7.1463341,1.0588362 H 1.0588501 C 0.46192732,1.0588362 0,1.5391701 0,2.1171556 v 5.8197232 c 0,0.5941791 0.47712785,1.0588361 1.0588501,1.0588361 h 3.3041911 l 0.9126059,1.2769081 c -0.1527091,0.14487 -0.2480464,0.348942 -0.2480469,0.574117 0,0.435211 0.3574878,0.79529 0.7927165,0.79529 0.4352288,0 0.7947838,-0.360079 0.7947835,-0.79529 -2e-7,-0.224405 -0.096263,-0.428304 -0.2485636,-0.573084 L 7.2796592,8.9957149 h 3.3036748 c 0.581722,0 1.05885,-0.4729431 1.05885,-1.0588361 V 3.7051513 h 0.26355 c 0.581724,0 1.05885,-0.477138 1.05885,-1.0588361 V 1.0588362 C 12.964584,0.47713896 12.487458,0 11.905734,0 Z m 0.7921998,1.5874791 c 0.1461209,0 0.2645834,0.118465 0.2645834,0.2645798 0,0.1461153 -0.1184625,0.2645799 -0.2645834,0.2645799 -0.1461209,0 -0.2645833,-0.1184646 -0.2645833,-0.2645799 0,-0.1461148 0.1184624,-0.2645798 0.2645833,-0.2645798 z m 1.0583332,0 c 0.146121,0 0.264584,0.118465 0.264584,0.2645798 0,0.1461153 -0.118463,0.2645799 -0.264584,0.2645799 -0.1461213,0 -0.2645832,-0.1184646 -0.2645832,-0.2645799 0,-0.1461148 0.1184619,-0.2645798 0.2645832,-0.2645798 z m 1.058334,0 c 0.146119,0 0.264583,0.118465 0.264583,0.2645798 0,0.1461153 -0.118464,0.2645799 -0.264583,0.2645799 -0.146121,0 -0.264584,-0.1184646 -0.264584,-0.2645799 0,-0.1461148 0.118463,-0.2645798 0.264584,-0.2645798 z M 1.0588501,1.587995 h 2.1450888 c -0.3436787,0.3364562 -0.5575888,0.80492 -0.5575888,1.3218658 0,0.5422207 0.2351543,1.0318194 0.6087484,1.3709578 C 2.3027939,4.487501 1.5880168,5.3353111 1.5880168,6.3488821 V 8.4660377 H 1.0588501 C 0.76112314,8.4660393 0.52916668,8.2273771 0.52916668,7.9368788 V 2.1171556 c 0,-0.2977132 0.23949626,-0.5306059 0.52968342,-0.5291606 z m 3.4390667,0 c 0.7337369,0 1.3223999,0.5881572 1.3223999,1.3218658 0,0.733708 -0.588663,1.3223825 -1.3223999,1.3223825 -0.7337372,0 -1.3218833,-0.5886745 -1.3218833,-1.3223825 0,-0.7337086 0.5881461,-1.3218658 1.3218833,-1.3218658 z m 1.2939779,0 h 1.3544394 v 2.9098624 c 1.344e-4,0.2352817 0.284275,0.3534674 0.4511352,0.1875829 l 0.9761678,-0.980289 h 2.5393799 v 4.2317275 c 0,0.2889812 -0.231958,0.5291597 -0.529683,0.5291597 H 6.3494834 V 7.7808179 l 0.078031,0.078031 c 0.049617,0.049945 0.1171831,0.077969 0.1875853,0.07803 h 1.8510499 c 0.4351431,0 0.7932333,-0.3575749 0.7932333,-0.7927061 0,-0.435131 -0.35809,-0.7952897 -0.7932333,-0.7952897 H 7.5349409 L 6.5567059,5.1267513 C 6.3710589,4.8946997 6.2317978,4.6765743 6.0001506,4.5019915 5.907588,4.4322311 5.802069,4.3753279 5.6818238,4.3319783 6.0894089,3.9918853 6.3494834,3.4800325 6.3494834,2.9098616 6.3494834,2.3928429 6.1356586,1.9244639 5.7918947,1.587995 Z M 3.7052002,4.7614039 h 1.3224 c 0.3622866,0 0.5193694,0.062694 0.6542236,0.1643289 0.1348547,0.1016336 0.2605728,0.2807587 0.4609539,0.5312266 l 1.0583334,1.3218658 c 0.050244,0.062989 0.1266478,0.099267 0.2072224,0.099217 h 1.0578166 c 0.151138,0 0.2635499,0.1149866 0.2635499,0.26613 0,0.1511449 -0.1124114,0.2635464 -0.2635499,0.2635464 H 6.7246544 L 6.0079021,6.6909762 c -0.1034164,-0.1038685 -0.2717535,-0.1038685 -0.375171,0 -0.103872,0.1034134 -0.103872,0.2712375 0,0.3746493 L 5.8203167,7.2526917 V 8.4660385 H 3.1760335 V 7.1441727 C 3.1766156,6.997243 3.0568356,6.877463 2.9099,6.8780427 2.7637278,6.8785454 2.645774,6.9980063 2.6463501,7.1441727 V 8.4660385 H 2.1171835 V 6.348883 c 0,-0.8839896 0.7039983,-1.5874791 1.5880167,-1.5874791 z M 14.815634,8.4660385 c -0.727469,0 -1.321884,0.5949411 -1.321884,1.3223825 0,0.72744 0.594415,1.324449 1.321884,1.324449 0.727469,0 1.3224,-0.597009 1.3224,-1.324449 0,-0.7274414 -0.594931,-1.3223825 -1.3224,-1.3223825 z M 5.0115805,8.9957149 H 6.629053 L 5.8709596,10.056101 c -0.034768,-0.0044 -0.066014,-0.0037 -0.1012857,0 z m 2.9259197,2.3807021 c -0.11547,2.46e-4 -0.2176801,0.07532 -0.252181,0.185516 l -1.5875,5.027017 c -0.05335,0.170206 0.073288,0.343793 0.2516642,0.34416 2.9111034,7.15e-4 5.8218736,-5.29e-4 8.7322836,-5.29e-4 1.021442,2.5e-5 1.851567,-0.829605 1.851567,-1.851013 v -1.853609 c 0,-0.874836 -0.713143,-1.585929 -1.588017,-1.585929 h -0.529683 c -0.431441,0 -0.740902,0.0931 -0.972551,0.267681 -0.231647,0.174581 -0.370907,0.392708 -0.556555,0.624759 l -0.258382,0.322974 -0.337447,-1.284142 c -0.03059,-0.116223 -0.135611,-0.19687 -0.255799,-0.196885 z m 0.1932699,0.52916 h 4.1010419 l 0.384473,1.466557 -0.307992,0.384985 h -0.609782 l 0.201538,-1.005611 c 0.02819,-0.142838 -0.06453,-0.281657 -0.207222,-0.310571 -0.14053,-0.02678 -0.29938,0.05433 -0.320911,0.257346 H 8.8320192 c -0.1001461,1.68e-4 -0.1919711,0.05716 -0.2366782,0.146759 l -0.6304522,2.117155 c -0.087759,0.175757 0.039707,0.382611 0.2361613,0.382918 h 3.4411339 1.494482 l 0.278536,1.058319 H 6.7107016 Z m 0.937285,1.322382 h 2.1974079 l -0.113688,0.562232 c -0.327198,0.09822 -0.568441,0.40442 -0.568441,0.761701 0,0.09215 0.01657,0.181002 0.04599,0.263546 H 8.6304813 Z"
       id="path848"
       inkscape:connector-curvature="0"
       sodipodi:nodetypes="cccccccccccccccccccccccccccccccccccccccccccccccccccccccccccccccccccccccccccccccccccccccccccccccccccccccccccccccccccccccccccccccccccccccccccccccc" />
  </g>
</svg>
