<?xml version="1.0" encoding="UTF-8" standalone="no"?>
<!-- Uploaded to: SVG Repo, www.svgrepo.com, Generator: SVG Repo Mixer Tools -->

<svg
   height="800"
   width="800"
   version="1.1"
   id="Layer_1"
   viewBox="0 0 512 512"
   xml:space="preserve"
   sodipodi:docname="database-folder-svgrepo-com.svg"
   inkscape:export-filename="..\crimestop_analytics\frontend\public\images\data.svg"
   inkscape:export-xdpi="96"
   inkscape:export-ydpi="96"
   xmlns:inkscape="http://www.inkscape.org/namespaces/inkscape"
   xmlns:sodipodi="http://sodipodi.sourceforge.net/DTD/sodipodi-0.dtd"
   xmlns="http://www.w3.org/2000/svg"
   xmlns:svg="http://www.w3.org/2000/svg"><defs
   id="defs1107" /><sodipodi:namedview
   id="namedview1105"
   pagecolor="#ffffff"
   bordercolor="#000000"
   borderopacity="0.25"
   inkscape:showpageshadow="2"
   inkscape:pageopacity="0.0"
   inkscape:pagecheckerboard="0"
   inkscape:deskcolor="#d1d1d1"
   showgrid="false" />
<path
   style="fill:#ff0000"
   d="M 475.919,81.897 H 265.814 c -12.151,0 -23.805,-4.827 -32.397,-13.42 L 205.276,40.336 C 196.683,31.743 185.03,26.916 172.879,26.916 H 36.081 c -15.182,0 -27.49,12.307 -27.49,27.49 v 109.96 H 503.41 v -54.98 C 503.409,94.205 491.102,81.897 475.919,81.897 Z"
   id="path1070" />
<path
   style="fill:#ff0000"
   d="m 503.409,118.784 c -7.681,-5.814 -17.135,-9.397 -27.49,-9.397 H 36.081 c -10.355,0 -19.809,3.583 -27.49,9.397 v 45.583 H 503.41 v -45.583 z"
   id="path1072" />
<path
   style="fill:#ff0000"
   d="M 475.919,485.083 H 36.081 c -15.182,0 -27.49,-12.307 -27.49,-27.49 V 164.367 c 0,-15.182 12.307,-27.49 27.49,-27.49 H 475.92 c 15.182,0 27.49,12.307 27.49,27.49 v 293.226 c -0.001,15.182 -12.308,27.49 -27.491,27.49 z"
   id="path1074" />
<circle
   style="fill:#ff0000"
   cx="256"
   cy="310.98001"
   r="119.123"
   id="circle1076" />
<g
   id="g1082">
	<circle
   style="fill:#d40000"
   cx="256"
   cy="265.16299"
   r="27.49"
   id="circle1078" />
	<path
   style="fill:#d40000"
   d="m 285.757,322.086 c -3.475,-2.965 -8.517,-2.354 -12.002,0.6 -4.789,4.061 -10.984,6.511 -17.755,6.511 -6.771,0 -12.967,-2.45 -17.755,-6.511 -3.484,-2.954 -8.526,-3.565 -12.002,-0.6 -9.799,8.362 -16.06,20.701 -16.06,34.601 v 18.437 h 91.633 v -18.437 c 0.001,-13.9 -6.26,-26.24 -16.059,-34.601 z"
   id="path1080" />
</g>
<g
   id="g1088">
	<path
   style="fill:#d40000"
   d="m 248.063,327.929 c -3.628,-1.098 -6.977,-2.837 -9.8,-5.227 -3.48,-2.945 -8.486,-3.623 -11.959,-0.669 -9.835,8.362 -16.121,20.724 -16.121,34.652 v 18.438 h 27.49 v -18.437 c 0,-10.963 3.936,-20.922 10.39,-28.757 z"
   id="path1084" />
	<path
   style="fill:#d40000"
   d="m 274.327,283.49 c -15.182,0 -27.49,-12.307 -27.49,-27.49 0,-6.969 2.677,-13.258 6.95,-18.103 -14.129,1.145 -25.277,12.842 -25.277,27.267 0,15.182 12.307,27.49 27.49,27.49 8.214,0 15.502,-3.674 20.54,-9.387 -0.743,0.06 -1.455,0.223 -2.213,0.223 z"
   id="path1086" />
</g>
<path
   style="fill:#ffdc64"
   d="m 46.928,136.877 h -0.226 c 0.073,0.168 0.148,0.218 0.226,0 z"
   id="path1090" />
<path
   style="fill:#ff0000"
   d="m 191.857,457.593 c -70.851,0 -128.286,-57.436 -128.286,-128.286 v -192.43 h -27.49 c -15.182,0 -27.49,12.307 -27.49,27.49 v 293.226 c 0,15.182 12.307,27.49 27.49,27.49 H 475.92 c 11.952,0 22.019,-7.674 25.806,-18.327 l 1.684,-9.163 z"
   id="path1092" />
<path
   d="M 475.919,73.306 H 265.814 c -9.943,0 -19.291,-3.873 -26.323,-10.903 L 211.35,34.262 C 201.073,23.985 187.411,18.326 172.879,18.326 H 36.081 C 16.186,18.327 0,34.512 0,54.407 v 403.186 c 0,19.895 16.186,36.081 36.081,36.081 H 475.92 c 19.895,0 36.081,-16.186 36.081,-36.081 V 109.387 C 512,89.492 495.814,73.306 475.919,73.306 Z m 18.9,384.287 c 0,10.421 -8.478,18.899 -18.899,18.899 H 36.081 c -10.421,0 -18.899,-8.478 -18.899,-18.899 V 164.367 c 0,-10.421 8.478,-18.899 18.899,-18.899 H 420.94 c 4.744,0 8.591,-3.846 8.591,-8.591 0,-4.744 -3.846,-8.591 -8.591,-8.591 H 36.081 c -6.925,0 -13.399,1.966 -18.899,5.362 V 54.407 c 0,-10.421 8.478,-18.899 18.899,-18.899 H 172.88 c 9.943,0 19.291,3.873 26.323,10.903 l 28.141,28.141 c 10.277,10.277 23.939,15.936 38.471,15.936 h 210.106 c 10.421,0 18.899,8.478 18.899,18.899 v 24.261 c -5.5,-3.396 -11.974,-5.362 -18.899,-5.362 h -18.327 c -4.744,0 -8.591,3.846 -8.591,8.591 0,4.744 3.846,8.591 8.591,8.591 h 18.327 c 10.421,0 18.899,8.478 18.899,18.899 v 293.226 z"
   id="path1094" />
<path
   d="m 256,301.244 c 19.895,0 36.081,-16.186 36.081,-36.081 0,-19.895 -16.186,-36.081 -36.081,-36.081 -19.895,0 -36.081,16.186 -36.081,36.081 0,19.895 16.186,36.081 36.081,36.081 z m 0,-54.98 c 10.421,0 18.899,8.478 18.899,18.899 0,10.421 -8.478,18.899 -18.899,18.899 -10.421,0 -18.899,-8.478 -18.899,-18.899 0,-10.421 8.478,-18.899 18.899,-18.899 z"
   id="path1096" />
<path
   d="m 201.593,356.796 v 18.327 c 0,4.744 3.846,8.591 8.591,8.591 h 91.633 c 4.744,0 8.591,-3.846 8.591,-8.591 v -18.327 c 0,-19.251 -10.487,-37.257 -27.371,-46.992 -3.896,-2.248 -8.867,-1.108 -11.396,2.613 -3.532,5.197 -9.379,8.299 -15.641,8.299 -6.262,0 -12.108,-3.102 -15.641,-8.299 -2.529,-3.72 -7.5,-4.859 -11.396,-2.613 -16.883,9.736 -27.37,27.741 -27.37,46.992 z m 17.181,0 c 0,-11.025 4.8,-21.142 13.114,-28.146 6.552,5.891 15.106,9.247 24.112,9.247 9.006,0 17.561,-3.356 24.112,-9.247 8.313,7.004 13.114,17.122 13.114,28.146 v 9.736 h -74.452 z"
   id="path1098" />
<path
   d="m 145.758,302.943 c 1.915,-26.444 13.31,-51.348 32.083,-70.121 18.774,-18.773 43.676,-30.168 70.12,-32.083 26.178,-1.897 52.192,5.551 73.243,20.97 3.828,2.804 9.203,1.974 12.006,-1.854 2.803,-3.827 1.974,-9.203 -1.854,-12.006 -24.337,-17.825 -54.39,-26.436 -84.637,-24.245 -30.56,2.214 -59.336,15.379 -81.028,37.071 -21.692,21.692 -34.857,50.469 -37.071,81.029 -2.19,30.242 6.421,60.301 24.247,84.638 1.683,2.298 4.292,3.514 6.937,3.514 1.762,0 3.539,-0.541 5.07,-1.661 3.827,-2.804 4.657,-8.179 1.853,-12.006 -15.417,-21.053 -22.864,-47.065 -20.969,-73.246 z"
   id="path1100" />
<path
   d="m 347.127,233.768 c -3.828,2.804 -4.657,8.179 -1.854,12.006 15.42,21.052 22.866,47.063 20.97,73.243 -1.915,26.444 -13.31,51.347 -32.083,70.12 -18.774,18.774 -43.677,30.168 -70.121,32.084 -26.184,1.889 -52.193,-5.552 -73.243,-20.971 -3.827,-2.802 -9.203,-1.974 -12.006,1.853 -2.804,3.828 -1.974,9.203 1.854,12.006 21.849,16.007 48.309,24.584 75.377,24.584 3.079,0 6.169,-0.111 9.257,-0.334 30.561,-2.213 59.337,-15.378 81.029,-37.071 21.692,-21.692 34.857,-50.468 37.071,-81.028 2.191,-30.242 -6.419,-60.3 -24.245,-84.637 -2.804,-3.828 -8.18,-4.656 -12.006,-1.855 z"
   id="path1102" />
</svg>
