<?xml version="1.0" encoding="UTF-8" standalone="no"?>
<!-- Uploaded to: SVG Repo, www.svgrepo.com, Generator: SVG Repo Mixer Tools -->

<svg
   width="800"
   height="800"
   viewBox="0 0 24 24"
   version="1.1"
   id="svg911"
   sodipodi:docname="fingerprint-svgrepo-com.svg"
   xmlns:inkscape="http://www.inkscape.org/namespaces/inkscape"
   xmlns:sodipodi="http://sodipodi.sourceforge.net/DTD/sodipodi-0.dtd"
   xmlns="http://www.w3.org/2000/svg"
   xmlns:svg="http://www.w3.org/2000/svg">
  <defs
     id="defs915" />
  <sodipodi:namedview
     id="namedview913"
     pagecolor="#ffffff"
     bordercolor="#000000"
     borderopacity="0.25"
     inkscape:showpageshadow="2"
     inkscape:pageopacity="0.0"
     inkscape:pagecheckerboard="0"
     inkscape:deskcolor="#d1d1d1"
     showgrid="false" />
  <path
     d="m 4.16,20.176 a 0.475,0.475 0 0 1 -0.439,-0.294 9.428,9.428 0 0 1 5,-12.11 0.475,0.475 0 0 1 0.364,0.875 8.464,8.464 0 0 0 -4.485,10.874 0.474,0.474 0 0 1 -0.259,0.62 0.48,0.48 0 0 1 -0.18,0.035 z m 14.544,-2.648 c 1.52,-0.571 2.17,-2.01 1.74,-3.853 -0.686,-2.943 -4.361,-6.932 -9.215,-6.447 a 0.475,0.475 0 1 0 0.094,0.944 8.021,8.021 0 0 1 8.198,5.72 2.143,2.143 0 0 1 -1.15,2.747 c -0.853,0.32 -1.816,-0.386 -2.99,-1.343 a 0.47408491,0.47408491 0 1 0 -0.599,0.735 c 0.911,0.743 2.005,1.636 3.158,1.636 a 2.154,2.154 0 0 0 0.764,-0.14 z m -3.785,4.917 A 0.475,0.475 0 0 0 14.682,21.818 C 11.667,20.457 9.622,17.546 9.604,15.683 a 1.351,1.351 0 0 1 0.754,-1.358 2.579,2.579 0 0 1 2.614,0.342 0.47454452,0.47454452 0 1 0 0.493,-0.811 3.521,3.521 0 0 0 -3.514,-0.389 2.287,2.287 0 0 0 -1.296,2.225 c 0.02,2.147 2.181,5.431 5.636,6.99 a 0.475,0.475 0 0 0 0.628,-0.237 z m 4.019,-1.766 a 0.475,0.475 0 0 0 -0.344,-0.576 c -2.603,-0.658 -5.336,-2.514 -6.357,-4.318 a 0.475,0.475 0 1 0 -0.826,0.468 c 1.307,2.309 4.486,4.147 6.95,4.77 a 0.48,0.48 0 0 0 0.117,0.014 0.475,0.475 0 0 0 0.46,-0.358 z m -9.97,2.22 A 0.475,0.475 0 0 0 9.109,22.243 C 5.75,17.028 6.855,13.504 8.822,12.071 c 1.93,-1.407 5.336,-1.247 7.848,1.813 a 0.474,0.474 0 1 0 0.733,-0.601 c -2.88,-3.512 -6.858,-3.64 -9.14,-1.978 -2.3,1.675 -3.668,5.68 0.049,11.452 a 0.474,0.474 0 0 0 0.655,0.142 z M 4.85,4.397 c 1.323,-1.234 8.372,-4.568 13.677,-0.33 a 0.474,0.474 0 1 0 0.592,-0.74 C 13.625,-1.063 6.222,1.817 4.203,3.704 A 0.47404061,0.47404061 0 1 0 4.85,4.397 Z m 17.347,8.67 A 0.475,0.475 0 0 0 22.575,12.512 10.525,10.525 0 0 0 13.178,4.18 10.523,10.523 0 0 0 2.124,10.81 0.475,0.475 0 0 0 2.994,11.19 C 4.866,6.89 8.634,4.62 13.072,5.123 a 9.58,9.58 0 0 1 8.57,7.565 0.475,0.475 0 0 0 0.466,0.387 0.496,0.496 0 0 0 0.089,-0.009 z"
     id="path907"
     style="fill:#ff0000" />
  <path
     fill="none"
     d="M 0,0 H 24 V 24 H 0 Z"
     id="path909" />
</svg>
