<?xml version="1.0" encoding="UTF-8" standalone="no"?>
<!-- Uploaded to: SVG Repo, www.svgrepo.com, Generator: SVG Repo Mixer Tools -->

<svg
   height="800"
   width="800"
   version="1.1"
   id="_x32_"
   viewBox="0 0 512 512"
   xml:space="preserve"
   sodipodi:docname="bell-svgrepo-com.svg"
   inkscape:export-filename="bell.svg"
   inkscape:export-xdpi="96"
   inkscape:export-ydpi="96"
   xmlns:inkscape="http://www.inkscape.org/namespaces/inkscape"
   xmlns:sodipodi="http://sodipodi.sourceforge.net/DTD/sodipodi-0.dtd"
   xmlns="http://www.w3.org/2000/svg"
   xmlns:svg="http://www.w3.org/2000/svg"><defs
   id="defs970" /><sodipodi:namedview
   id="namedview968"
   pagecolor="#ffffff"
   bordercolor="#000000"
   borderopacity="0.25"
   inkscape:showpageshadow="2"
   inkscape:pageopacity="0.0"
   inkscape:pagecheckerboard="0"
   inkscape:deskcolor="#d1d1d1"
   showgrid="false" />
<style
   type="text/css"
   id="style957">
	.st0{fill:#000000;}
</style>
<g
   id="g965"
   style="fill:#ff0000">
	<path
   class="st0"
   d="M 448.282,367.411 H 63.712 c -19.812,0 -35.928,16.114 -35.928,35.924 0,19.814 16.116,35.932 35.928,35.932 h 384.57 c 19.814,0 35.934,-16.118 35.934,-35.932 0,-19.809 -16.12,-35.924 -35.934,-35.924 z"
   id="path959"
   style="fill:#ff0000" />
	<path
   class="st0"
   d="m 425.958,340.707 c -8.653,-14.375 -13.226,-30.765 -13.226,-47.396 v -78.824 c 0,-78.145 -57.706,-144.27 -134.748,-155.09 5.693,-6.534 8.793,-14.759 8.793,-23.474 0,-19.81 -16.12,-35.924 -35.934,-35.924 -19.808,0 -35.924,16.114 -35.924,35.924 0,9.324 3.729,18.272 10.326,24.996 C 152.058,75.478 99.269,139.562 99.269,214.488 v 78.824 c 0,16.627 -4.573,33.016 -13.224,47.396 l -1.45,2.41 h 342.813 z"
   id="path961"
   style="fill:#ff0000" />
	<path
   class="st0"
   d="m 201.956,470.773 c 4.095,23.89 24.654,41.227 48.884,41.227 24.235,0 44.8,-17.337 48.896,-41.227 l 0.32,-1.86 h -98.42 z"
   id="path963"
   style="fill:#ff0000" />
</g>
</svg>
