<?xml version="1.0" encoding="UTF-8" standalone="no"?>
<!-- Uploaded to: SVG Repo, www.svgrepo.com, Generator: SVG Repo Mixer Tools -->

<svg
   fill="#000000"
   width="2000"
   height="2000"
   viewBox="0 0 50 50"
   version="1.2"
   overflow="inherit"
   id="svg4"
   sodipodi:docname="police-svgrepo-com.svg"
   inkscape:export-filename="..\..\..\icon.png"
   inkscape:export-xdpi="96"
   inkscape:export-ydpi="96"
   inkscape:version="1.2.1 (9c6d41e410, 2022-07-14)"
   xmlns:inkscape="http://www.inkscape.org/namespaces/inkscape"
   xmlns:sodipodi="http://sodipodi.sourceforge.net/DTD/sodipodi-0.dtd"
   xmlns="http://www.w3.org/2000/svg"
   xmlns:svg="http://www.w3.org/2000/svg">
  <defs
     id="defs8" />
  <sodipodi:namedview
     id="namedview6"
     pagecolor="#ffffff"
     bordercolor="#000000"
     borderopacity="0.25"
     inkscape:showpageshadow="2"
     inkscape:pageopacity="0.0"
     inkscape:pagecheckerboard="0"
     inkscape:deskcolor="#d1d1d1"
     showgrid="false"
     inkscape:zoom="1.09625"
     inkscape:cx="212.54276"
     inkscape:cy="400.4561"
     inkscape:window-width="1920"
     inkscape:window-height="1057"
     inkscape:window-x="-8"
     inkscape:window-y="-8"
     inkscape:window-maximized="1"
     inkscape:current-layer="svg4" />
  <path
     d="m 28.581,20.544 c 0,3.369 -2.789,3.369 -4.292,3.369 h -1.874 l 8.209806,1.555743 2.754088,-2.223489 C 34.403618,22.417952 28.581,17.544 28.581,20.544 Z M 42.977,17.181 C 43.255,13.753 44.248,10.607 46,7.723 L 39.281,1 C 37.158,2.828 34.742,3.84 32.002,4.019 29.493,4.246 27.111,3.769 24.875,2.585 22.574,3.731 20.204,4.21 17.733,4.019 15.177,3.79 12.871,2.884 10.805,1.278 l -6.738,6.72 c 1.657,2.925 2.58,5.987 2.762,9.183 0.086,1.472 -0.334,3.498 -1.276,6.117 -0.493,1.452 -0.866,2.712 -1.12,3.764 -0.235,1.045 -0.382,1.895 -0.431,2.531 -0.035,2.791 0.748,5.311 2.353,7.55 1.254,1.635 3.322,3.44 6.194,5.415 3.142,1.6 5.574,2.639 7.277,3.081 l 1.412,0.656 c 0.444,0.214 0.92,0.421 1.417,0.647 1.071,0.642 1.824,1.339 2.22,2.057 0.486,-0.777 1.255,-1.456 2.277,-2.057 0.722,-0.314 1.333,-0.588 1.823,-0.828 0.49,-0.215 0.855,-0.377 1.067,-0.476 0.363,-0.181 0.84,-0.387 1.417,-0.615 0.583,-0.229 1.302,-0.51 2.161,-0.82 1.66,-0.589 2.868,-1.144 3.636,-1.646 2.785,-1.975 4.821,-3.75 6.117,-5.339 1.662,-2.249 2.469,-4.78 2.432,-7.626 -0.098,-1.274 -0.637,-3.313 -1.616,-6.091 -0.934,-2.704 -1.348,-4.804 -1.212,-6.32 z m -12.35,9.21 c -1.595,1.044 -3.788,1.044 -4.933,1.044 h -3.145 v 8.606 H 17.82 l 16.248575,0.843042 5.857812,-10.31927 C 41.46662,23.851457 30.262,14.166 32.074,16.375 c 1.131,1.406 1.322,3.003 1.322,4.138 -0.002,2.571 -1.061,4.741 -2.769,5.878 z"
     id="path2"
     sodipodi:nodetypes="ssccsscccccccccccccccccccccccccccccsccccsccc"
     style="fill:#d40000" />
</svg>
