<?xml version="1.0" encoding="UTF-8" standalone="no"?>
<svg
   width="622"
   height="124"
   viewBox="0 0 622 124"
   version="1.1"
   id="svg10"
   sodipodi:docname="logo-stackoverflow.svg"
   xmlns:inkscape="http://www.inkscape.org/namespaces/inkscape"
   xmlns:sodipodi="http://sodipodi.sourceforge.net/DTD/sodipodi-0.dtd"
   xmlns="http://www.w3.org/2000/svg"
   xmlns:svg="http://www.w3.org/2000/svg">
  <defs
     id="defs14" />
  <sodipodi:namedview
     id="namedview12"
     pagecolor="#ffffff"
     bordercolor="#000000"
     borderopacity="0.25"
     inkscape:showpageshadow="2"
     inkscape:pageopacity="0.0"
     inkscape:pagecheckerboard="0"
     inkscape:deskcolor="#d1d1d1"
     showgrid="false" />
  <g
     fill="none"
     fill-rule="evenodd"
     id="g8">
    <text
       xml:space="preserve"
       style="font-size:56.0839px;fill:#d40000;stroke-width:0.751124"
       x="130.6212"
       y="87.068298"
       id="text275"
       transform="scale(0.87675284,1.1405723)"><tspan
         sodipodi:role="line"
         id="tspan273"
         x="130.6212"
         y="87.068298"
         style="font-style:normal;font-variant:normal;font-weight:normal;font-stretch:normal;font-family:Inter;-inkscape-font-specification:Inter;stroke-width:0.751124">CrimeStop-Analytics</tspan></text>
    <path
       style="fill:#d40000;stroke-width:0.225267"
       d="m 56.484521,122.04749 c -3.945115,-2.976 -5.068388,-3.52034 -19.273206,-9.3395 -5.964543,-2.44344 -10.158177,-4.47543 -13.191795,-6.392 C 20.848781,104.31278 11.751376,96.486486 9.8956132,94.165492 7.0893164,90.655681 5.0409546,86.546536 3.9355782,82.209318 3.4861856,80.44602 3.4015334,79.43147 3.3895175,75.664733 3.3805336,72.849215 3.4920592,70.672249 3.6922493,69.755572 3.8665746,68.957311 4.9929258,64.896 6.1952509,60.730426 7.397571,56.564863 8.607662,52.226278 8.8843446,51.089162 9.6080298,48.114896 9.9392792,44.112899 9.7591096,40.520743 9.4717671,34.791882 8.613449,31.448694 5.4207221,23.622611 4.4670183,21.284853 3.6346272,19.176787 3.5709598,18.938014 3.4398116,18.446111 4.1186068,17.709846 9.4789291,12.529965 16.036166,6.193439 20.925709,1.6446591 21.179675,1.6446591 c 0.140467,0 1.478394,0.594343 2.973171,1.3207677 4.073694,1.9797088 7.017982,3.1840052 9.521487,3.8945764 2.101584,0.5964891 2.547417,0.6454871 6.778401,0.7449205 7.008969,0.1647201 9.076823,-0.1053962 15.558693,-2.0324019 l 2.708572,-0.8052466 2.920518,0.9398694 C 66.22,7.1808891 68.437234,7.5949014 72.637558,7.760563 81.47041,8.1089342 85.76845,7.0681027 93.694767,2.6612448 L 97.058829,0.79089041 97.908,1.4769425 c 2.43621,1.9682692 16.70298,16.0377825 16.70298,16.4720625 0,0.155457 -0.70355,1.89216 -1.56344,3.859316 -3.69202,8.446099 -4.68094,11.949887 -5.06431,17.943164 -0.27299,4.267579 -0.13333,8.115496 0.39291,10.825213 0.18824,0.969309 1.49284,5.681088 2.89911,10.470626 1.40627,4.789537 2.69244,9.493825 2.85816,10.453982 0.41483,2.403592 0.16514,8.228261 -0.45845,10.694609 -1.01873,4.029159 -3.0992,8.292617 -5.60097,11.477907 -0.904,1.150996 -2.94543,3.118071 -5.81075,5.599087 -5.239114,4.536451 -8.63843,7.148321 -11.147585,8.565261 -1.009567,0.57012 -6.571351,3.0283 -12.359522,5.46262 -12.624269,5.3094 -13.943747,5.97988 -19.089954,9.70052 l -0.978971,0.70779 z"
       id="path776" />
  </g>
</svg>
