<?xml version="1.0" encoding="UTF-8" standalone="no"?>
<svg
   width="64"
   height="64"
   viewBox="0 0 64 64"
   fill="none"
   version="1.1"
   id="svg1479"
   sodipodi:docname="58137549916310167304009.svg"
   inkscape:export-filename="prevent.svg"
   inkscape:export-xdpi="96"
   inkscape:export-ydpi="96"
   xmlns:inkscape="http://www.inkscape.org/namespaces/inkscape"
   xmlns:sodipodi="http://sodipodi.sourceforge.net/DTD/sodipodi-0.dtd"
   xmlns="http://www.w3.org/2000/svg"
   xmlns:svg="http://www.w3.org/2000/svg">
  <defs
     id="defs1483" />
  <sodipodi:namedview
     id="namedview1481"
     pagecolor="#ffffff"
     bordercolor="#000000"
     borderopacity="0.25"
     inkscape:showpageshadow="2"
     inkscape:pageopacity="0.0"
     inkscape:pagecheckerboard="0"
     inkscape:deskcolor="#d1d1d1"
     showgrid="false" />
  <path
     d="m 59.0901,45.1601 -21.55,-19.25 c -0.1854,-0.1743 -0.4304,-0.2714 -0.685,-0.2714 -0.2545,0 -0.4995,0.0971 -0.685,0.2714 l -4.37,4.41 c -0.1773,0.186 -0.2762,0.4331 -0.2762,0.69 0,0.257 0.0989,0.5041 0.2762,0.69 l 19.2,21.54 c 0.5173,0.5834 1.1492,1.0541 1.8563,1.3827 0.7071,0.3286 1.4742,0.5081 2.2537,0.5273 h 0.16 c 0.7447,-0.0015 1.4817,-0.1508 2.1683,-0.4392 0.6867,-0.2884 1.3092,-0.7101 1.8317,-1.2408 v 0 c 0.5518,-0.5493 0.9855,-1.2057 1.2743,-1.9287 0.2888,-0.7231 0.4266,-1.4976 0.4051,-2.2759 -0.0216,-0.7784 -0.2021,-1.544 -0.5304,-2.25 -0.3284,-0.706 -0.7976,-1.3374 -1.379,-1.8554 z"
     fill="#07485E"
     id="path1463"
     style="fill:#ff0000" />
  <path
     d="M 44,19.5701 32.63,8.23012 C 32.537,8.1364 32.4264,8.062 32.3046,8.01123 32.1827,7.96046 32.052,7.93433 31.92,7.93433 c -0.132,0 -0.2627,0.02613 -0.3846,0.0769 C 31.4135,8.062 31.3029,8.1364 31.21,8.23012 L 14.08,25.3601 c -0.0938,0.093 -0.1681,0.2036 -0.2189,0.3254 -0.0508,0.1219 -0.0769,0.2526 -0.0769,0.3846 0,0.132 0.0261,0.2627 0.0769,0.3846 0.0508,0.1219 0.1251,0.2325 0.2189,0.3254 l 11.34,11.34 c 0.1862,0.1848 0.4376,0.2889 0.7,0.29 0.1316,8e-4 0.262,-0.0244 0.3839,-0.0742 0.1218,-0.0498 0.2326,-0.1231 0.3261,-0.2158 L 44,21.0001 c 0.0952,-0.0931 0.1709,-0.2043 0.2226,-0.3271 0.0516,-0.1228 0.0783,-0.2547 0.0783,-0.3879 0,-0.1332 -0.0267,-0.2651 -0.0783,-0.3878 C 44.1709,19.7745 44.0952,19.6633 44,19.5701 Z"
     fill="#FFB454"
     id="path1465"
     style="fill:#d40000" />
  <path
     d="M 47.4101,15.4601 36.2201,4.27011 c -0.7703,-0.76699 -1.813,-1.1976 -2.9,-1.1976 -1.087,0 -2.1297,0.43061 -2.9,1.1976 l -1.58,1.59 c -0.1862,0.18736 -0.2908,0.44081 -0.2908,0.705 0,0.26418 0.1046,0.51763 0.2908,0.705 l 15.57,15.56999 c 0.093,0.0937 0.2036,0.1681 0.3254,0.2189 0.1219,0.0508 0.2526,0.0769 0.3846,0.0769 0.132,0 0.2627,-0.0261 0.3846,-0.0769 0.1218,-0.0508 0.2324,-0.1252 0.3254,-0.2189 l 1.58,-1.58 c 0.381,-0.3807 0.6832,-0.8328 0.8894,-1.3304 0.2062,-0.4976 0.3123,-1.031 0.3123,-1.5696 0,-0.5386 -0.1061,-1.072 -0.3123,-1.5696 -0.2062,-0.4976 -0.5084,-0.9496 -0.8894,-1.3304 z"
     fill="#07485E"
     id="path1467"
     style="fill:#ff0000" />
  <path
     d="m 13.1202,23 c -0.1874,-0.1862 -0.4408,-0.2908 -0.705,-0.2908 -0.2642,0 -0.5177,0.1046 -0.705,0.2908 l -1.59,1.58 c -0.381,0.3808 -0.68322,0.8329 -0.88942,1.3305 -0.20619,0.4975 -0.31232,1.0309 -0.31232,1.5695 0,0.5386 0.10613,1.072 0.31232,1.5696 0.2062,0.4976 0.50842,0.9497 0.88942,1.3304 l 11.19,11.18 c 0.3807,0.381 0.8328,0.6832 1.3304,0.8894 0.4976,0.2062 1.031,0.3123 1.5696,0.3123 0.5386,0 1.072,-0.1061 1.5695,-0.3123 0.4976,-0.2062 0.9497,-0.5084 1.3305,-0.8894 l 1.58,-1.56 c 0.0937,-0.0929 0.1681,-0.2035 0.2189,-0.3254 0.0507,-0.1219 0.0769,-0.2526 0.0769,-0.3846 0,-0.132 -0.0262,-0.2627 -0.0769,-0.3846 C 28.8583,38.7836 28.7839,38.673 28.6902,38.58 Z"
     fill="#07485E"
     id="path1469"
     style="fill:#ff0000" />
  <path
     d="M 32.3399,49.8501 H 9.37988 c -0.55228,0 -1,0.4477 -1,1 v 3.05 c 0,0.5523 0.44772,1 1,1 H 32.3399 c 0.5523,0 1,-0.4477 1,-1 v -3.05 c 0,-0.5523 -0.4477,-1 -1,-1 z"
     fill="#FFD845"
     id="path1471"
     style="fill:#ff0000" />
  <path
     d="m 37.72,59.0001 h -1.86 v -5.1 c 0,-0.2652 -0.1054,-0.5195 -0.2929,-0.7071 -0.1875,-0.1875 -0.4419,-0.2929 -0.7071,-0.2929 h -28 c -0.26522,0 -0.51957,0.1054 -0.70711,0.2929 C 5.96536,53.3806 5.86,53.6349 5.86,53.9001 v 5.1 H 4 c -0.26522,0 -0.51957,0.1054 -0.70711,0.2929 C 3.10536,59.4806 3,59.7349 3,60.0001 3,60.2654 3.10536,60.5197 3.29289,60.7073 3.48043,60.8948 3.73478,61.0001 4,61.0001 h 33.72 c 0.2652,0 0.5196,-0.1053 0.7071,-0.2928 0.1875,-0.1876 0.2929,-0.4419 0.2929,-0.7072 0,-0.2652 -0.1054,-0.5195 -0.2929,-0.7071 -0.1875,-0.1875 -0.4419,-0.2929 -0.7071,-0.2929 z"
     fill="#FFB454"
     id="path1473"
     style="fill:#ff0000" />
  <path
     d="m 59.0902,45.1601 -20.76,-18.55 4.93,-4.92 1.15,1.15 c 0.0929,0.0937 0.2035,0.1681 0.3254,0.2189 0.1219,0.0508 0.2526,0.0769 0.3846,0.0769 0.132,0 0.2627,-0.0261 0.3846,-0.0769 0.1218,-0.0508 0.2324,-0.1252 0.3254,-0.2189 l 1.58,-1.58 c 0.381,-0.3807 0.6832,-0.8328 0.8894,-1.3304 0.2062,-0.4976 0.3123,-1.031 0.3123,-1.5696 0,-0.5386 -0.1061,-1.072 -0.3123,-1.5696 -0.2062,-0.4976 -0.5084,-0.9496 -0.8894,-1.3304 L 36.2202,4.27011 c -0.7703,-0.76699 -1.813,-1.1976 -2.9,-1.1976 -1.087,0 -2.1298,0.43061 -2.9,1.1976 l -1.58,1.59 c -0.1863,0.18736 -0.2908,0.44081 -0.2908,0.705 0,0.26418 0.1045,0.51763 0.2908,0.705 l 1.67,1.66999 -15.72,15.72 -1.67,-1.66 c -0.1874,-0.1862 -0.4408,-0.2908 -0.705,-0.2908 -0.2642,0 -0.5177,0.1046 -0.705,0.2908 l -1.59,1.58 c -0.381,0.3808 -0.68322,0.8328 -0.88942,1.3304 -0.20619,0.4976 -0.31232,1.031 -0.31232,1.5696 0,0.5386 0.10613,1.072 0.31232,1.5696 0.2062,0.4976 0.50842,0.9497 0.88942,1.3304 l 11.19,11.18 c 0.3807,0.381 0.8328,0.6832 1.3304,0.8894 0.4976,0.2062 1.031,0.3123 1.5696,0.3123 0.5386,0 1.072,-0.1061 1.5695,-0.3123 0.4976,-0.2062 0.9497,-0.5084 1.3305,-0.8894 l 1.58,-1.56 c 0.0937,-0.093 0.1681,-0.2036 0.2189,-0.3254 0.0507,-0.1219 0.0769,-0.2526 0.0769,-0.3846 0,-0.132 -0.0262,-0.2627 -0.0769,-0.3846 -0.0508,-0.1218 -0.1252,-0.2324 -0.2189,-0.3254 l -1.15,-1.15 4.92,-4.93 18.54,20.74 c 0.5203,0.5775 1.1525,1.0434 1.8583,1.3692 0.7057,0.3259 1.4703,0.505 2.2474,0.5265 0.7771,0.0216 1.5504,-0.115 2.2731,-0.4013 0.7227,-0.2864 1.3797,-0.7165 1.9312,-1.2644 v 0 c 0.5485,-0.5508 0.9794,-1.2073 1.2666,-1.9296 0.2871,-0.7223 0.4246,-1.4955 0.404,-2.2725 -0.0205,-0.7771 -0.1987,-1.5419 -0.5237,-2.248 -0.325,-0.7061 -0.79,-1.3389 -1.3669,-1.8599 z M 31.8402,5.69011 c 0.4014,-0.39095 0.9396,-0.60971 1.5,-0.60971 0.5603,0 1.0985,0.21876 1.5,0.60971 l 11.16,11.18999 c 0.1983,0.1962 0.3558,0.4298 0.4632,0.6873 0.1075,0.2575 0.1628,0.5337 0.1628,0.8127 0,0.279 -0.0553,0.5552 -0.1628,0.8127 -0.1074,0.2575 -0.2649,0.4911 -0.4632,0.6873 l -0.88,0.88 -14.12,-14.19999 z m -6.15,34.45999 c -0.1962,0.1983 -0.4298,0.3558 -0.6873,0.4633 -0.2575,0.1074 -0.5337,0.1628 -0.8127,0.1628 -0.279,0 -0.5552,-0.0554 -0.8127,-0.1628 -0.2575,-0.1075 -0.4911,-0.265 -0.6873,-0.4633 l -11.15,-11.15 c -0.1965,-0.1952 -0.3525,-0.4273 -0.4589,-0.6831 -0.1064,-0.2557 -0.1611,-0.5299 -0.1611,-0.8069 -0.0044,-0.2806 0.0483,-0.5591 0.1549,-0.8187 0.1065,-0.2596 0.2648,-0.4948 0.4651,-0.6913 l 0.87,-0.88 14.16,14.15 z m -9.49,-14.08 15.72,-15.72 9.92,9.92 -15.72,15.73 z m 41.71,26 c -0.36,0.355 -0.788,0.6335 -1.2583,0.8188 -0.4704,0.1853 -0.9734,0.2737 -1.4787,0.2596 -0.5053,-0.014 -1.0026,-0.13 -1.462,-0.3411 -0.4593,-0.2111 -0.8713,-0.5129 -1.211,-0.8873 l -18.62,-20.85 3,-3 20.88,18.58 c 0.3743,0.3397 0.6762,0.7517 0.8873,1.211 0.2111,0.4594 0.3271,0.9567 0.3411,1.462 0.014,0.5054 -0.0743,1.0083 -0.2596,1.4787 -0.1853,0.4703 -0.4639,0.8983 -0.8188,1.2583 z"
     fill="#000000"
     id="path1475" />
  <path
     d="m 37.72,59.0001 h -1.86 v -5.1 c 0,-0.2652 -0.1054,-0.5195 -0.2929,-0.7071 -0.1875,-0.1875 -0.4419,-0.2929 -0.7071,-0.2929 h -1.52 v -2 c 0,-0.2652 -0.1054,-0.5195 -0.2929,-0.7071 -0.1875,-0.1875 -0.4419,-0.2929 -0.7071,-0.2929 h -23 c -0.26522,0 -0.51957,0.1054 -0.70711,0.2929 C 8.44536,50.3806 8.34,50.6349 8.34,50.9001 v 2 H 6.86 c -0.26522,0 -0.51957,0.1054 -0.70711,0.2929 C 5.96536,53.3806 5.86,53.6349 5.86,53.9001 v 5.1 H 4 c -0.26522,0 -0.51957,0.1054 -0.70711,0.2929 C 3.10536,59.4806 3,59.7349 3,60.0001 3,60.2654 3.10536,60.5197 3.29289,60.7073 3.48043,60.8948 3.73478,61.0001 4,61.0001 h 33.72 c 0.2652,0 0.5196,-0.1053 0.7071,-0.2928 0.1875,-0.1876 0.2929,-0.4419 0.2929,-0.7072 0,-0.2652 -0.1054,-0.5195 -0.2929,-0.7071 -0.1875,-0.1875 -0.4419,-0.2929 -0.7071,-0.2929 z m -27.34,-7.15 h 21 v 1 h -21 z m -2.52,7.15 v -4.1 h 26 v 4.1 z"
     fill="#000000"
     id="path1477" />
</svg>
